Jump_normalized_Motion_pl11
version=1
nRows=14
nColumns=43
inDegrees=yes
endheader
time		pelvis_tilt		pelvis_list		pelvis_rotation		pelvis_tx		pelvis_ty		pelvis_tz		hip_flexion_r		hip_adduction_r		hip_rotation_r		knee_angle_r		ankle_angle_r		subtalar_angle_r		mtp_angle_r		hip_flexion_l		hip_adduction_l		hip_rotation_l		knee_angle_l		ankle_angle_l		subtalar_angle_l		mtp_angle_l		lumbar_extension		lumbar_bending		lumbar_rotation		neck_flexion		neck_lateral_bending		neck_rotation		arm_flex_r		arm_add_r		arm_rot_r		elbow_flex_r		pro_sup_r		wrist_flex_r		wrist_dev_r		hand_finger_flex_r		arm_flex_l		arm_add_l		arm_rot_l		elbow_flex_l		pro_sup_l		wrist_flex_l		wrist_dev_l		hand_finger_flex_l		
0.360000		-2.184366		-8.041210		93.301964		0.028205		1.775574		1.851470		70.941149		-5.026313		6.457266		-136.091905		30.192808		-1.299643		0.128110		70.246605		1.395274		7.889177		-133.347125		31.523712		-6.523026		9.354516		-55.869845		-1.974265		0.595243		31.368903		1.055294		-4.406017		73.087461		-21.883873		23.706836		56.259308		66.083991		-43.259680		11.524490		31.058726		70.081485		-9.732940		6.375157		67.852398		114.383201		-14.062117		25.499423		81.232500		
0.362929		-2.192173		-8.283714		93.266378		0.028247		1.775105		1.850026		71.081573		-5.045229		6.481167		-136.153925		30.151701		-1.248825		0.129760		70.346944		1.384455		7.858174		-133.408603		31.552161		-6.547427		9.389338		-55.654170		-2.039197		0.609422		31.500098		1.088816		-4.442164		74.326316		-21.809885		24.167978		56.420632		66.172143		-42.996875		11.514371		31.139865		71.200188		-9.437089		6.745152		67.786841		114.484652		-14.084292		25.471568		81.269368		
0.365859		-2.194847		-8.458656		93.226633		0.028252		1.774846		1.848542		71.133013		-5.073465		6.519823		-136.175120		30.085092		-1.117815		0.143894		70.356769		1.368977		7.829765		-133.436631		31.573868		-6.672713		9.438035		-55.499247		-2.092614		0.621321		31.466995		1.145232		-4.480726		75.654236		-21.795783		24.863523		56.546305		66.239806		-42.642037		11.570666		31.268174		72.329857		-9.218615		7.219972		67.733371		114.541002		-14.130943		25.427764		81.384277		
0.368788		-2.199418		-8.611397		93.208278		0.028268		1.774695		1.846991		71.143679		-5.122018		6.539330		-136.191394		30.044218		-0.970641		0.173726		70.331467		1.374070		7.808536		-133.467287		31.579859		-6.842748		9.490849		-55.379371		-2.126928		0.603519		31.507077		1.180338		-4.491080		76.989408		-21.673739		25.418077		56.635038		66.276115		-42.341923		11.612707		31.380325		73.458783		-9.003395		7.648664		67.674552		114.536491		-14.213767		25.369490		81.527203		
0.371717		-2.203218		-8.764117		93.199075		0.028254		1.774593		1.845394		71.134794		-5.172210		6.553450		-136.206968		30.010351		-0.833018		0.209912		70.302496		1.397668		7.785434		-133.488458		31.568496		-7.029388		9.547900		-55.262907		-2.152186		0.574550		31.554558		1.220092		-4.496722		78.320743		-21.518245		25.930555		56.717151		66.301344		-42.051361		11.659734		31.479510		74.599677		-8.796675		8.087240		67.617779		114.501765		-14.311494		25.310537		81.688626		
0.374646		-2.206493		-8.927942		93.198268		0.028249		1.774518		1.843780		71.130143		-5.210914		6.560992		-136.219505		29.984054		-0.723156		0.243934		70.284461		1.426658		7.764389		-133.505186		31.545248		-7.213327		9.604132		-55.137370		-2.170555		0.544402		31.633332		1.259703		-4.501564		79.639573		-21.339676		26.393792		56.806591		66.305116		-41.775381		11.707887		31.550891		75.751131		-8.576479		8.513653		67.555962		114.450392		-14.415128		25.254937		81.843819		
0.377576		-2.194121		-9.157974		93.190346		0.028358		1.774480		1.842120		71.161774		-5.230263		6.553698		-136.178678		29.973328		-0.667953		0.258567		70.320395		1.439916		7.782037		-133.486822		31.548172		-7.318338		9.631093		-54.960662		-2.204075		0.498006		31.746684		1.281066		-4.505040		80.838300		-21.055670		26.608127		57.002663		66.309927		-41.605709		11.696612		31.574102		76.870040		-8.312419		8.750442		67.525179		114.435701		-14.477516		25.199486		81.891130		
0.380505		-2.192463		-9.298165		93.191953		0.028303		1.774454		1.840413		71.102853		-5.242783		6.556777		-136.196908		29.932512		-0.596548		0.278694		70.268270		1.478475		7.745020		-133.516573		31.465763		-7.538036		9.676695		-54.847425		-2.212490		0.488628		31.669107		1.352033		-4.529089		82.209151		-21.015603		27.295091		57.158312		66.230152		-41.231190		11.793498		31.615644		78.024498		-8.132589		9.276190		67.506037		114.335872		-14.564719		25.149714		82.052762		
0.383434		-2.179220		-9.504781		93.190650		0.028354		1.774398		1.838639		71.094252		-5.240454		6.546244		-136.190931		29.916575		-0.572558		0.285762		70.270757		1.485340		7.738920		-133.531765		31.438779		-7.660231		9.695397		-54.677319		-2.227254		0.462074		31.662656		1.383090		-4.539288		83.422236		-20.820114		27.595666		57.415991		66.153002		-41.033137		11.768331		31.607661		79.101994		-7.864646		9.520856		67.544848		114.273763		-14.635697		25.096632		82.103580		
0.386364		-2.163488		-9.711941		93.194317		0.028381		1.774483		1.836925		71.074212		-5.224691		6.536885		-136.150824		29.885640		-0.540321		0.294243		70.262991		1.502697		7.722863		-133.501074		31.380869		-7.845146		9.721275		-54.519897		-2.234084		0.444127		31.732292		1.425530		-4.554636		84.772903		-20.704020		28.158978		57.577105		66.005965		-40.737056		11.792404		31.590552		80.296103		-7.625588		9.917623		67.440639		114.178276		-14.725021		25.056272		82.192426		
0.389293		-2.132654		-9.916917		93.199891		0.028390		1.774639		1.835229		71.038721		-5.197973		6.511640		-136.087656		29.843634		-0.527376		0.296207		70.245277		1.520235		7.713828		-133.449556		31.316910		-8.075549		9.741431		-54.367895		-2.225317		0.446036		31.822614		1.453466		-4.574282		86.205155		-20.636331		28.882953		57.696774		65.712333		-40.413511		11.769570		31.516951		81.545151		-7.385983		10.356572		67.257032		114.022895		-14.856630		25.029733		82.296064		
0.392222		-2.076051		-10.082172		93.223226		0.028296		1.774940		1.833502		70.937222		-5.178582		6.465584		-136.004509		29.801852		-0.527993		0.294990		70.174585		1.538864		7.712013		-133.390342		31.236235		-8.391005		9.777182		-54.258993		-2.170991		0.479439		31.920413		1.447400		-4.593039		87.726301		-20.616378		29.764174		57.757569		65.073478		-40.113742		11.602193		31.289286		82.819394		-7.154651		10.852147		67.043056		113.701878		-15.161774		25.006248		82.516608		
0.395152		-2.040828		-10.368544		93.251878		0.028358		1.775131		1.831635		70.948408		-5.125590		6.437963		-135.938372		29.801088		-0.518639		0.293483		70.193013		1.539752		7.719206		-133.289798		31.253201		-8.472290		9.787804		-54.023333		-2.144305		0.424596		31.998473		1.440211		-4.592111		88.900095		-20.290834		29.875994		57.991497		64.921930		-40.029319		11.463926		31.214119		83.920358		-6.859075		10.956732		67.014298		113.638967		-15.279936		24.952571		82.548046		
0.398081		-1.974835		-10.573946		93.276922		0.028232		1.775177		1.829779		70.908961		-5.125166		6.372290		-135.898979		29.740406		-0.541540		0.262358		70.176937		1.567687		7.747321		-133.301976		31.213718		-8.683687		9.792464		-53.834627		-2.087433		0.473617		31.943551		1.477563		-4.604929		90.363182		-20.253541		30.651223		58.050076		64.500410		-39.729461		11.326926		31.068417		85.152536		-6.661410		11.460142		66.881989		113.449252		-15.455032		24.901514		82.734305		
